<svg xmlns="http://www.w3.org/2000/svg" viewBox="0 0 128 128">
  <defs><linearGradient id="g" x1="0" y1="0" x2="1" y2="1"><stop stop-color="#6ef3ff"/><stop offset="1" stop-color="#5865f2"/></linearGradient></defs>
  <rect width="128" height="128" rx="38" fill="#101320"/>
  <circle cx="64" cy="64" r="45" fill="url(#g)" opacity=".95"/>
  <path fill="#101320" d="M87 45c-6-3-12-5-18-5l-2 4c-5-1-10-1-15 0l-2-4c-6 1-12 3-18 5-10 15-12 30-10 45 8 6 16 9 24 11l5-8c-3-1-5-2-8-4l2-2c13 6 27 6 40 0l2 2c-2 2-5 3-8 4l5 8c8-2 16-5 24-11 2-17-2-31-11-45ZM49 76c-5 0-9-4-9-10s4-10 9-10 9 4 9 10-4 10-9 10Zm31 0c-5 0-9-4-9-10s4-10 9-10 9 4 9 10-4 10-9 10Z"/>
</svg>
